<svg xmlns="http://www.w3.org/2000/svg" width="36" height="36" viewBox="0 0 36 36" fill="none"><path d="M5.99998 0H10.5C13.8137 0 16.5 2.68629 16.5 5.99998V10.5C16.5 13.8137 13.8137 16.5 10.5 16.5H5.99998C2.68629 16.5 0 13.8137 0 10.5V5.99998C0 2.68629 2.68629 0 5.99998 0Z" fill="#22343C"></path><path d="M25.5 0H30C33.3137 0 36 2.68629 36 5.99998V10.5C36 13.8137 33.3137 16.5 30 16.5H25.5C22.1863 16.5 19.5 13.8137 19.5 10.5V5.99998C19.4999 2.68629 22.1862 0 25.5 0Z" fill="#818A8E" fill-opacity="0.68"></path><path d="M5.99998 19.5H10.5C13.8137 19.5 16.5 22.1863 16.5 25.5V30C16.5 33.3137 13.8137 36 10.5 36H5.99998C2.68629 36 0 33.3137 0 30V25.5C0 22.1863 2.68629 19.5 5.99998 19.5Z" fill="#818A8E" fill-opacity="0.68"></path><path d="M25.5 19.5H30C33.3137 19.5 36 22.1863 36 25.5V30C36 33.3137 33.3137 36 30 36H25.5C22.1863 36 19.5 33.3137 19.5 30V25.5C19.4999 22.1863 22.1862 19.5 25.5 19.5Z" fill="#22343C"></path></svg>